<svg xmlns="http://www.w3.org/2000/svg" width="1280" height="420" viewBox="0 0 1280 420">
<rect width="1280" height="420" fill="#0e1715"/>
<g stroke="#293b33" stroke-width="1" opacity=".65"><path d="M0 320H1280M0 360H1280M0 400H1280M840 0V420M880 0V420M920 0V420M960 0V420M1000 0V420M1040 0V420M1080 0V420M1120 0V420M1160 0V420M1200 0V420"/></g>
<path d="M864 318L924 258H984V198H1044V138H1124" fill="none" stroke="#abf49b" stroke-width="5"/>
<g fill="#abf49b"><rect x="854" y="308" width="20" height="20"/><rect x="1114" y="128" width="20" height="20"/></g>
<g font-family="Arial, Helvetica, sans-serif"><text x="72" y="88" font-size="16" font-weight="700" letter-spacing="5" fill="#abf49b">FABRIC · SURVIVAL AUTOMATION</text><text x="66" y="193" font-size="86" font-weight="700" letter-spacing="-4" fill="#f3f5eb">Lodekeeper</text><text x="72" y="245" font-size="26" fill="#bac8bd">Give it a goal. Let it find the way.</text><rect x="72" y="295" width="494" height="58" rx="4" fill="#192922" stroke="#425b4b"/><text x="94" y="332" font-family="monospace" font-size="23" fill="#abf49b">!lk get diamond_boots</text></g>
</svg>
